<svg xmlns="http://www.w3.org/2000/svg" width="56" height="56" viewBox="0 0 56 56"><defs><style>.a{fill:#2d5fac;}.b{fill:#fff;}</style></defs><g transform="translate(-6 -6)"><circle class="a" cx="28" cy="28" r="28" transform="translate(6 6)"/><g transform="translate(12.541 18.742)"><path d="M64.4,157.233m23.374-12.858c0-2.352.011-4.715-.011-7.067,0-.347.1-.448.448-.448,1.579.022,3.147,0,4.726.011.358,0,.5-.123.515-.47.056-1.5.1-3,.179-4.5.022-.426-.123-.56-.538-.549-1.635.022-3.259,0-4.894.011-.325,0-.448-.078-.437-.426.022-1.008,0-2,.011-3.013,0-.459.034-.918.078-1.366a1.342,1.342,0,0,1,1.176-1.322,17.228,17.228,0,0,1,2.162-.146c.638-.022,1.277.022,1.926.011.213,0,.414-.034.426-.336.022-1.49.056-2.979.067-4.469a.455.455,0,0,0-.269-.325,1.906,1.906,0,0,0-.571-.09l-2.419-.1a10.554,10.554,0,0,0-3.83.448,6.374,6.374,0,0,0-4.514,5.992c-.056,1.534-.045,3.069-.045,4.6,0,.392-.1.538-.515.526-.986-.034-1.982,0-2.968-.011-.347,0-.5.09-.5.482.022,1.534.011,3.069,0,4.6,0,.325.1.448.437.437q1.378-.017,2.755,0c.8.011.784-.157.784.8v13.63c0,.627,0,.627.616.627,1.557,0,3.125-.011,4.682.011.414.011.515-.134.515-.526C87.763,149.057,87.774,146.717,87.774,144.376Z" transform="translate(-64.4 -119.766)"/><path class="b" d="M195.578,144.376c0,2.341-.011,4.682.011,7.022,0,.392-.1.538-.515.526-1.557-.022-3.125-.011-4.682-.011-.616,0-.616,0-.616-.627v-13.63c0-.941.011-.784-.784-.8q-1.378-.017-2.755,0c-.336.011-.437-.112-.437-.437q.017-2.3,0-4.6c0-.381.157-.482.5-.482.986.011,1.982-.011,2.968.011.414.011.515-.146.515-.526,0-1.534-.011-3.069.045-4.6a6.388,6.388,0,0,1,4.514-5.992,10.554,10.554,0,0,1,3.83-.448l2.419.1a1.608,1.608,0,0,1,.571.09.483.483,0,0,1,.269.325c-.011,1.49-.045,2.979-.067,4.469,0,.3-.213.336-.426.336-.638,0-1.288-.034-1.926-.011a15.574,15.574,0,0,0-2.162.146,1.342,1.342,0,0,0-1.176,1.322c-.045.459-.078.918-.078,1.366-.011,1.008.011,2-.011,3.013-.011.347.112.426.437.426,1.635-.011,3.259.011,4.894-.011.426,0,.56.123.538.549-.078,1.5-.123,3-.179,4.5-.011.347-.157.47-.515.47-1.579-.022-3.147,0-4.726-.011-.347,0-.448.1-.448.448Q195.572,140.837,195.578,144.376Z" transform="translate(-172.203 -119.766)"/></g></g></svg>