<?xml version="1.0" encoding="utf-8"?>
<!-- Generator: Adobe Illustrator 25.0.1, SVG Export Plug-In . SVG Version: 6.00 Build 0)  -->
<svg version="1.1" id="Layer_1" xmlns="http://www.w3.org/2000/svg" xmlns:xlink="http://www.w3.org/1999/xlink" x="0px" y="0px"
	 viewBox="0 0 300 300" style="enable-background:new 0 0 300 300;" xml:space="preserve">
<style type="text/css">
	.st0{fill:#FFFFFF;}
</style>
<path id="Path_454" class="st0" d="M150.3,114c-19.9,0-36,16.1-36,36s16.1,36,36,36c19.9,0,36-16.1,36-36
	C186.2,130.1,170.1,114,150.3,114L150.3,114z"/>
<path id="Path_455" class="st0" d="M192.6,58.4H108c-27.2,0-49.2,22.1-49.3,49.3v84.6c0,27.2,22.1,49.2,49.3,49.3h84.6
	c27.2,0,49.2-22.1,49.3-49.3v-84.6C241.8,80.4,219.8,58.4,192.6,58.4z M150.3,204.9c-30.3,0-54.9-24.6-54.9-54.9
	c0-30.3,24.6-54.9,54.9-54.9c30.3,0,54.9,24.6,54.9,54.9C205.2,180.3,180.6,204.9,150.3,204.9C150.3,204.9,150.3,204.9,150.3,204.9z
	 M210.6,103.3c-7.5,0-13.5-6.1-13.5-13.6c0-7.5,6.1-13.5,13.6-13.5c7.5,0,13.5,6.1,13.5,13.6c0,3.6-1.4,7-4,9.6
	C217.7,101.9,214.2,103.3,210.6,103.3z"/>
<path id="Path_456" class="st0" d="M299.1,70.6c0-5.4-0.5-10.7-1.5-16c-1.1-6.5-3.1-12.7-6-18.6c-3.2-6.1-7.4-11.7-12.4-16.6
	c-7.6-7.4-16.9-12.7-27.1-15.5c-9.4-2.3-19-3.3-28.6-3.1c0,0,0-0.1-0.1-0.1H77.1v0.1c-5.5,0-11,0.2-16.4,0.7
	c-6,0.6-11.9,1.9-17.5,3.9C24.2,12.7,9.7,28.5,4.3,48C2.1,57.3,1,66.9,1.3,76.4L1.1,223.3l0,0c0,6.6,0.4,13.3,1.4,19.9
	c1,7,3.1,13.7,6.1,20.1c4.3,8.5,10.4,15.9,17.9,21.7c5.4,4.3,11.4,7.6,17.9,9.7c9.6,3,19.5,4.4,29.5,4.3c6.3,0,12.5,0.2,18.8,0.2
	c45.5-0.2,90.9,0.3,136.4-0.3c6-0.1,12-0.8,17.9-1.9c11.2-2,21.5-7,30-14.6c9.9-8.6,16.9-20.2,19.8-33c1.8-8.6,2.7-17.3,2.6-26.1
	v-1.8C299.4,220.8,299.1,72.5,299.1,70.6z M260.8,192.2c0,37.7-30.6,68.2-68.3,68.3H108c-37.7,0-68.2-30.6-68.3-68.3v-84.6
	c0-37.7,30.6-68.2,68.3-68.3h84.6c37.7,0.1,68.2,30.6,68.3,68.3V192.2z"/>
</svg>
