<svg xmlns="http://www.w3.org/2000/svg" width="28.254" height="28.275" viewBox="0 0 28.254 28.275"><defs><style>.a{fill:#fff;}</style></defs><path class="a" d="M196.676,193.27a3.406,3.406,0,1,0,3.406,3.406A3.406,3.406,0,0,0,196.676,193.27Z" transform="translate(-182.549 -182.54)"/><path class="a" d="M118.173,105.49h-8.014a4.675,4.675,0,0,0-4.669,4.669v8.014a4.675,4.675,0,0,0,4.669,4.669h8.014a4.675,4.675,0,0,0,4.669-4.669v-8.014A4.675,4.675,0,0,0,118.173,105.49Zm-4.007,13.881a5.205,5.205,0,1,1,5.205-5.205A5.205,5.205,0,0,1,114.166,119.371Zm5.72-9.622a1.284,1.284,0,1,1,.91-.377,1.285,1.285,0,0,1-.91.377Z" transform="translate(-100.039 -100.03)"/><path class="a" d="M42.927,21.166a8.656,8.656,0,0,0-.139-1.518,6.18,6.18,0,0,0-.573-1.761,6.114,6.114,0,0,0-1.176-1.568,5.832,5.832,0,0,0-2.567-1.465,10.291,10.291,0,0,0-2.714-.289.028.028,0,0,1-.005-.014H21.9v.014a14.793,14.793,0,0,0-1.556.07,7.412,7.412,0,0,0-1.661.372A6.022,6.022,0,0,0,15,19.03a10.379,10.379,0,0,0-.289,2.693L14.7,35.632h0a13.352,13.352,0,0,0,.128,1.883,6.521,6.521,0,0,0,.579,1.9,6.085,6.085,0,0,0,1.7,2.057,5.518,5.518,0,0,0,1.7.922,9.2,9.2,0,0,0,2.795.411c.593,0,1.185.019,1.778.016,4.307-.018,8.615.031,12.922-.026A10.165,10.165,0,0,0,38,42.616a5.74,5.74,0,0,0,2.839-1.382,5.886,5.886,0,0,0,1.876-3.127,11.4,11.4,0,0,0,.244-2.474v-.166C42.954,35.4,42.929,21.352,42.927,21.166ZM39.3,32.693a6.476,6.476,0,0,1-6.468,6.468H24.82a6.476,6.476,0,0,1-6.468-6.468V24.679A6.476,6.476,0,0,1,24.82,18.21h8.014A6.476,6.476,0,0,1,39.3,24.679Z" transform="translate(-14.7 -14.55)"/></svg>