<svg xmlns="http://www.w3.org/2000/svg" width="55.654" height="55.654" viewBox="0 0 55.654 55.654"><defs><style>.a{fill:#55aded;}.b{fill:#fff;}</style></defs><g transform="translate(238.1 -241.9)"><circle class="a" cx="27.827" cy="27.827" r="27.827" transform="translate(-238.1 241.9)"/><g transform="translate(-222.804 258.365)"><path class="b" d="M-216.9,257.589s-7.74-.369-11.794-5.713a8.346,8.346,0,0,0,1.29,7.556,1.9,1.9,0,0,1-1.843,0s.737,3.686,4.054,4.607a5.092,5.092,0,0,1-2.211.921s.921,2.4,4.976,3.5c0,0-2.027,2.949-7.371,2.764,0,0,4.423,4.976,14.19,1.106,0,0,9.767-2.949,9.951-15.48V256.3a3.28,3.28,0,0,0,2.027-2.027,11.915,11.915,0,0,1-1.843.369,4.482,4.482,0,0,1,1.843-2.58s-2.58.184-3.133.921a7.584,7.584,0,0,0-3.133-2.027,8.435,8.435,0,0,0-3.686.184C-213.583,250.955-218.006,252.614-216.9,257.589Z" transform="translate(229.8 -250.835)"/></g></g></svg>