<svg xmlns="http://www.w3.org/2000/svg" width="55.652" height="55.654" viewBox="0 0 55.652 55.654"><defs><style>.a{fill:#f6921b;}</style></defs><path class="a" d="M35,7.173A27.827,27.827,0,1,0,62.826,35,27.858,27.858,0,0,0,35,7.173ZM27.7,34.951a5.529,5.529,0,0,1-.068.823l11.709,5.733a5.616,5.616,0,1,1-1.449,2.965L26.179,38.738a5.5,5.5,0,1,1,.013-7.56l11.693-5.67a5.563,5.563,0,0,1-.065-.8,5.513,5.513,0,1,1,1.5,3.773l-11.693,5.67A5.421,5.421,0,0,1,27.7,34.951Z" transform="translate(-7.174 -7.173)"/></svg>