<?xml version="1.0" encoding="utf-8"?>
<!-- Generator: Adobe Illustrator 25.0.1, SVG Export Plug-In . SVG Version: 6.00 Build 0)  -->
<svg version="1.1" id="Layer_1" xmlns="http://www.w3.org/2000/svg" xmlns:xlink="http://www.w3.org/1999/xlink" x="0px" y="0px"
	 viewBox="0 0 300 300" style="enable-background:new 0 0 300 300;" xml:space="preserve">
<style type="text/css">
	.st0{fill:#FFFFFF;}
</style>
<path id="Path_12" class="st0" d="M295.8,88.2c1.1-24.7-18-45.6-42.6-46.8c-31.9-1.5-64.5-2.1-97.7-2.1h-10.4
	c-33.2,0-65.8,0.6-97.7,2.1C22.8,42.6,3.7,63.6,4.8,88.3c-1.4,20.5-2.1,41-2,61.5c0.1,20.5,0.6,41,2,61.6
	c-1.1,24.7,17.9,45.7,42.6,47c33.5,1.6,67.9,2.2,102.9,2.2c35,0.1,69.3-0.6,102.9-2.2c24.7-1.2,43.8-22.2,42.6-47
	c1.4-20.6,2-41.1,2-61.6C297.8,129.3,297.2,108.8,295.8,88.2z M122.1,206.4V93.2l83.5,56.6L122.1,206.4z"/>
</svg>
