<?xml version="1.0" encoding="utf-8"?>
<!-- Generator: Adobe Illustrator 25.0.1, SVG Export Plug-In . SVG Version: 6.00 Build 0)  -->
<svg version="1.1" id="Layer_1" xmlns="http://www.w3.org/2000/svg" xmlns:xlink="http://www.w3.org/1999/xlink" x="0px" y="0px"
	 viewBox="0 0 300 300" style="enable-background:new 0 0 300 300;" xml:space="preserve">
<style type="text/css">
	.st0{fill-rule:evenodd;clip-rule:evenodd;fill:#FFFFFF;}
</style>
<path id="iconfinder_Colored_Facebook3_svg_5365678" class="st0" d="M262.6,1.4c20,0,36.3,16.3,36.3,36.3v224.6
	c0,20-16.3,36.3-36.3,36.3h-61.8v-112h38.7l7.4-48h-46v-31.1c-1.2-13.2,8.6-24.8,21.7-26c1.8-0.2,3.5-0.1,5.3,0.1h20.9V40.8
	c-12.3-2-24.7-3.1-37.1-3.2c-37.9,0-62.7,23-62.7,64.5v36.5h-42.1v48h42.1v112H38c-20.1,0-36.3-16.2-36.3-36.3V37.7
	C1.7,17.6,18,1.4,38,1.4H262.6z"/>
</svg>
