<svg xmlns="http://www.w3.org/2000/svg" width="32.915" height="24.691" viewBox="0 0 32.915 24.691"><defs><style>.a{fill:#fff;}</style></defs><path class="a" d="M32.695,69.452a5,5,0,0,0-4.758-5.221c-3.562-.167-7.195-.231-10.9-.231H15.875c-3.7,0-7.343.064-10.9.231A5.009,5.009,0,0,0,.219,69.465c-.161,2.289-.231,4.578-.225,6.867s.064,4.578.219,6.873a5.015,5.015,0,0,0,4.751,5.24c3.742.174,7.58.251,11.483.244q5.864.019,11.483-.244a5.016,5.016,0,0,0,4.758-5.24c.154-2.3.225-4.584.219-6.88Q32.926,72.892,32.695,69.452ZM13.3,82.639V70.005l9.323,6.314Z" transform="translate(0.006 -64)"/></svg>