<svg xmlns="http://www.w3.org/2000/svg" width="25.729" height="25.729" viewBox="0 0 25.729 25.729"><defs><style>.a{fill:#fff;fill-rule:evenodd;}</style></defs><path class="a" d="M22.586,0a3.145,3.145,0,0,1,3.143,3.143V22.586a3.145,3.145,0,0,1-3.143,3.143h-5.35V16.035h3.347l.637-4.152H17.235V9.188a2.076,2.076,0,0,1,2.341-2.243h1.811V3.411a22.09,22.09,0,0,0-3.215-.281c-3.281,0-5.425,1.988-5.425,5.588v3.164H9.1v4.152h3.647v9.694h-9.6A3.145,3.145,0,0,1,0,22.586V3.143A3.145,3.145,0,0,1,3.143,0H22.586Z" transform="translate(0 0)"/></svg>