<?xml version="1.0" encoding="utf-8"?>
<!-- Generator: Adobe Illustrator 25.0.1, SVG Export Plug-In . SVG Version: 6.00 Build 0)  -->
<svg version="1.1" id="Layer_1" xmlns="http://www.w3.org/2000/svg" xmlns:xlink="http://www.w3.org/1999/xlink" x="0px" y="0px"
	 viewBox="0 0 496.3 376.4" style="enable-background:new 0 0 496.3 376.4;" xml:space="preserve">
<style type="text/css">
	.st0{fill:#F6921E;}
	.st1{fill:#58595B;}
	.st2{fill:#00ADEE;}
	.st3{fill:#333333;}
</style>
<g>
	<g>
		<g>
			<path class="st0" d="M199.1,293.7l-29.7,51.6h30.4v12.9h-52.2l29.7-51.6h-29.1v-12.9H199.1z"/>
			<path class="st0" d="M238.4,358.2c-8.9,0-16.5-3.1-22.8-9.4c-6.3-6.3-9.4-13.9-9.4-22.8c0-8.9,3.1-16.5,9.4-22.8
				c6.3-6.3,13.9-9.4,22.8-9.4c8.9,0,16.5,3.1,22.8,9.4c6.3,6.3,9.4,13.9,9.4,22.8c0,8.9-3.2,16.5-9.4,22.8
				C254.9,355,247.3,358.2,238.4,358.2z M238.4,306.6c-5.3,0-9.9,1.9-13.7,5.7c-3.8,3.8-5.7,8.3-5.7,13.7c0,5.3,1.9,9.9,5.7,13.7
				c3.8,3.8,8.3,5.7,13.7,5.7c5.3,0,9.9-1.9,13.7-5.7c3.8-3.8,5.7-8.3,5.7-13.7c0-5.3-1.9-9.9-5.7-13.7
				C248.3,308.5,243.8,306.6,238.4,306.6z"/>
			<path class="st0" d="M309.3,358.2c-8.9,0-16.5-3.1-22.8-9.4c-6.3-6.3-9.4-13.9-9.4-22.8c0-8.9,3.1-16.5,9.4-22.8
				c6.3-6.3,13.9-9.4,22.8-9.4c8.9,0,16.5,3.1,22.8,9.4c6.3,6.3,9.4,13.9,9.4,22.8c0,8.9-3.2,16.5-9.4,22.8
				C325.8,355,318.2,358.2,309.3,358.2z M309.3,306.6c-5.3,0-9.9,1.9-13.7,5.7c-3.8,3.8-5.7,8.3-5.7,13.7c0,5.3,1.9,9.9,5.7,13.7
				c3.8,3.8,8.3,5.7,13.7,5.7c5.3,0,9.9-1.9,13.7-5.7c3.8-3.8,5.7-8.3,5.7-13.7c0-5.3-1.9-9.9-5.7-13.7
				C319.2,308.5,314.7,306.6,309.3,306.6z"/>
			<path class="st0" d="M399.6,325.9c0-5.3-1.9-9.9-5.7-13.7c-3.8-3.8-8.3-5.7-13.7-5.7c-5.3,0-9.9,1.9-13.7,5.7
				c-3.8,3.8-5.7,8.3-5.7,13.7v32.2H348v-64.5h12.9v6.4c5.5-4.3,12-6.4,19.3-6.4c8.9,0,16.5,3.1,22.8,9.4c6.3,6.3,9.4,13.9,9.4,22.8
				v32.2h-12.9V325.9z"/>
			<path class="st0" d="M470.5,351.8c-5.5,4.3-12,6.4-19.3,6.4c-8.9,0-16.5-3.1-22.8-9.4c-6.3-6.3-9.4-13.9-9.4-22.8
				c0-8.9,3.1-16.5,9.4-22.8c6.3-6.3,13.9-9.4,22.8-9.4c7.3,0,13.8,2.1,19.3,6.4v-6.4h12.9v64.5h-12.9V351.8z M451.1,306.6
				c-5.3,0-9.9,1.9-13.7,5.7c-3.8,3.8-5.7,8.3-5.7,13.7c0,5.3,1.9,9.9,5.7,13.7c3.8,3.8,8.3,5.7,13.7,5.7c5.3,0,9.9-1.9,13.7-5.7
				c3.8-3.8,5.7-8.3,5.7-13.7c0-5.3-1.9-9.9-5.7-13.7C461,308.5,456.5,306.6,451.1,306.6z"/>
		</g>
		<g>
			<path class="st1" d="M22.1,316.6c4-3,8.6-4.6,13.8-4.6c6.3,0,11.8,2.2,16.3,6.7c4.5,4.5,6.7,9.9,6.7,16.3
				c0,6.3-2.2,11.8-6.7,16.3c-4.5,4.5-9.9,6.7-16.3,6.7c-5.2,0-9.8-1.5-13.8-4.6v22.9h-9.2v-64.4h9.2V316.6z M35.9,348.9
				c3.8,0,7-1.3,9.7-4c2.7-2.7,4-5.9,4-9.7c0-3.8-1.3-7-4-9.7c-2.7-2.7-5.9-4-9.7-4c-3.8,0-7.1,1.3-9.7,4c-2.7,2.7-4,5.9-4,9.7
				c0,3.8,1.3,7.1,4,9.7S32.1,348.9,35.9,348.9z"/>
			<path class="st1" d="M96.7,344.3l8.2,4.6l-2.2,2.4c-4.5,4.5-9.9,6.8-16.3,6.8c-6.3,0-11.8-2.2-16.3-6.7
				c-4.5-4.5-6.7-9.9-6.7-16.3c0-6.3,2.2-11.8,6.7-16.3c4.5-4.5,9.9-6.7,16.3-6.7c6.3,0,11.8,2.2,16.3,6.7c4.5,4.5,6.7,9.9,6.7,16.3
				c0,1.6-0.1,3.1-0.4,4.6H73.4c0.7,1.9,1.8,3.6,3.3,5.1c2.7,2.7,5.9,4,9.7,4c3.8,0,7-1.3,9.7-4C96.4,344.6,96.6,344.4,96.7,344.3z
				 M99.5,330.5c-0.7-1.9-1.8-3.6-3.3-5.1c-2.7-2.7-5.9-4-9.7-4c-3.8,0-7.1,1.3-9.7,4c-1.5,1.5-2.6,3.2-3.3,5.1H99.5z"/>
			<path class="st1" d="M118.7,312.1v-18.4h9.2v18.4h13.8v9.2h-13.8v13.8c0,3.8,1.4,7.1,4,9.7c2.7,2.7,5.9,4,9.7,4v9.2
				c-6.3,0-11.8-2.2-16.3-6.7c-4.5-4.5-6.7-9.9-6.7-16.3v-13.8h-4.6v-9.2H118.7z"/>
		</g>
	</g>
	<g>
		<path class="st2" d="M22.5,61c-6.4,5.3-8.9,11.5-7.4,16.6c2.4,8.6,13.7,17.8,27.2,18.6l0,0c2.5,0.3,5,0.4,7.3,0.1
			c13.1-1.3,24.8-9.1,34.9-23.2c-11.7-8.3-25-16.9-37.6-18.5C37.8,53.3,30,54.8,22.5,61z M48.3,73.8c-0.4,6-5.6,10.5-11.5,10.1
			c-6-0.4-10.5-5.6-10.1-11.5c0.4-6,5.6-10.5,11.5-10.1C44.2,62.7,48.7,67.8,48.3,73.8z"/>
		<path class="st3" d="M290.5,60.6c12.6,26.8,23.7,69.4,23.6,109.9c13.9-50,45.8-95,88.6-128.8C360.6,42.2,322.9,48.5,290.5,60.6z
			 M333.5,73.8c-0.4,6-5.6,10.5-11.5,10.1c-6-0.4-10.5-5.6-10.1-11.5c0.4-6,5.6-10.5,11.5-10.1C329.4,62.7,333.9,67.8,333.5,73.8z"
			/>
		<path class="st0" d="M195.2,66.5L195.2,66.5c-21.8-2.9-39.5-15.9-48.6-34.7c-13.7,11.5-25.9,24.1-36.6,37.5
			c10.8,8.1,18.3,16.3,23.1,22.2c15.9,19.9,21.7,40.1,24.9,51.3c1.8,6.5,3,12.3,3.8,16.8c14.4-40,47.3-77.4,91.8-103.9
			c-1.5-2.5-3-5-4.5-7.4C235.2,62.4,215.5,69.2,195.2,66.5z M157.6,73.8c-0.4,6-5.6,10.5-11.5,10.1c-6-0.4-10.5-5.6-10.1-11.5
			c0.4-6,5.6-10.5,11.5-10.1C153.5,62.7,158,67.8,157.6,73.8z"/>
		<path class="st1" d="M495.9,20.1c-0.4-1.6-1.1-3.1-2-4.4c-0.9-1.3-2.2-2.3-3.5-3c-1.3-0.7-2.7-1.1-4.1-1.2c-1.3-0.2-2.6-0.1-3.9,0
			c-1.1,0.1-2.2,0.3-3.3,0.5c1.1-0.1,2.3-0.1,3.4,0c1.3,0.2,2.5,0.5,3.5,1c0.4,0.2,0.8,0.4,1.3,0.7c0.1,0.1,0.3,0.2,0.4,0.3l0.4,0.4
			c0.1,0.1,0.3,0.3,0.4,0.4c0.1,0.1,0.1,0.1,0.2,0.2c0.1,0.1,0.2,0.3,0.3,0.5c0,0.1,0.1,0.1,0.1,0.2c0.2,0.3,0.3,0.4,0.3,0.6
			l0.2,0.5c0,0,0.1,0.2,0.2,0.5l0,0l0.1,0.5c0.1,0.9,0.1,1.9-0.1,2.8c-0.2,0.9-0.6,1.8-1,2.6c0,0.1-0.1,0.1-0.1,0.2
			c-0.1,0.1-0.1,0.2-0.2,0.4c0,0.1-0.1,0.2-0.2,0.2l-0.1,0.2l0,0c-0.1,0.2-0.8,0.9-0.9,0.9c-0.5,0.5-1.1,0.9-1.8,1.3
			c-0.6,0.3-1.3,0.6-2.1,1l-0.2,0.1c-0.3,0.1-0.6,0.2-0.9,0.3l-0.2,0l-1.2,0.2c-0.2,0-0.5,0.1-0.8,0.1c-0.2,0-0.3,0-0.5,0.1
			c-0.2,0-0.3,0-0.5,0c-0.3,0-0.6,0.1-0.9,0.1c-1,0.1-1.9,0.1-2.9,0c-0.3,0-0.6,0-0.8,0c-0.8-0.1-1.5-0.1-2.2-0.3l-0.8-0.1
			c-0.1,0-0.2-0.1-0.3-0.1c-0.1,0-0.3-0.1-0.4-0.1c-0.5-0.1-1-0.3-1.6-0.5c-0.8-0.3-1.6-0.6-2.3-1l-0.1-0.1l0-0.2c0-0.1,0-0.2,0-0.2
			c0-0.2,0-0.5,0.1-0.7c0-0.1,0-0.3,0-0.4c0-0.3,0.1-0.5,0.1-0.7c0-0.1,0-0.2,0.1-0.4c0.1-0.8,0.3-1.5,0.6-2.2
			c0.2-0.7,0.5-1.4,0.9-2.1c0.4-0.7,0.8-1.3,1.2-2c0.2-0.2,0.3-0.5,0.5-0.7c0.1-0.1,0.1-0.2,0.2-0.2c0.2-0.2,0.4-0.4,0.5-0.6
			c0.1-0.1,0.2-0.2,0.3-0.3c0.2-0.2,0.4-0.4,0.6-0.5c0,0,0.1-0.1,0.1-0.1c-0.3,0.2-0.6,0.4-0.9,0.6c-0.6,0.5-1.3,0.9-1.8,1.5
			c-0.3,0.3-0.6,0.5-0.9,0.8c-0.3,0.3-0.6,0.6-0.8,0.9c-0.3,0.3-0.6,0.6-0.8,0.9c-0.3,0.3-0.5,0.6-0.8,0.9c-0.2,0.3-0.5,0.6-0.7,1
			c-0.2,0.3-0.5,0.7-0.7,1c-0.2,0.4-0.5,0.7-0.7,1.1c-0.2,0.4-0.4,0.7-0.6,1.1c-0.3,0.5-0.6,1.1-0.8,1.7l-15.8-1.2
			c-57.4-4.5-116.8,2.5-169.2,27.3c-8.7-15.4-19.2-29.6-30-43.6c-9.3,21.5-22.7,40.8-49,38.2c-26.5-2.6-36.7-23.8-40.9-46.9
			c-23.9,19.5-45.7,40.2-62.9,66C80.7,54.3,63.9,40.5,45.3,39.1C23.6,37.6-1.6,52.9,0.1,76.6c2,27.8,32.1,38.5,55.9,30.9
			c16.8-5.4,29.8-17.5,39.3-31.9c9.7,7.5,22.6,18.4,32,30.2c3,3.8,5.6,8,7.8,12.3c0.8,1.7,1.7,3.4,2.5,5.2c0,0.1,0.1,0.2,0.1,0.4
			c0,0,0-0.1,0-0.1c-3.2-19.3-24.9-40.9-38.6-53.3c14.6-19.5,31.9-36.7,51.1-51.7c12.2,45.5,73.4,55.1,99.5,16.4
			c5.3,7.7,10.2,15.7,14.8,23.8c-46.3,25.6-90.5,69.7-100.7,123.6c-0.5,2.8-0.9,5.5-1.1,8.2c-4,49.9,44.2,85.3,93.2,69
			c24-8,38.3-24.9,45.7-46c17-48.2-1.5-118.6-21.4-155.7c45.8-18.9,96.6-23.9,145.8-22c-67.7,43.9-118.1,119.8-117.1,201.3
			c0,1.3,0,2.6,0,3.8c6.1-96.7,71.8-167.6,153.7-211.9l0.1,0.1c0.8,1.1,1.7,2.2,2.8,3.3c0.5,0.5,1.1,1,1.7,1.5
			c0.3,0.2,0.6,0.5,0.9,0.7l0.2,0.1l0.1,0.1l0,0c0.1,0,0,0,0.1,0l0,0l0,0l0.5,0.3c1.3,0.8,2.7,1.4,4.1,1.9c1.4,0.5,2.9,0.8,4.5,1
			c0.8,0.1,1.5,0.1,2.3,0.1l1.2,0c0.4,0,0.8-0.1,1.2-0.1c0.2,0,0.4,0,0.6-0.1l0.5-0.1l0.5-0.1l0.1,0l0.3-0.1l0.3-0.1
			c0.9-0.2,1.7-0.5,2.5-0.8c1.6-0.6,3-1.5,4.4-2.7c1.3-1.1,2.5-2.6,3.3-4.1c0.2-0.4,0.4-0.9,0.7-1.4l0.1-0.2l0-0.1l0.1-0.2l0.1-0.5
			l0-0.1l0,0c-0.1,0.2,0.1-0.2,0.1-0.2l0,0l0-0.1l0.1-0.3c0.1-0.2,0.1-0.4,0.1-0.6c0.1-0.4,0.2-0.8,0.2-1.3
			C496.4,23.3,496.3,21.7,495.9,20.1z M49.1,101.9c-23.3,2.7-56.3-22.6-29.7-44.4c24.1-19.9,50.2-0.8,70.5,14.1
			C80.8,86.9,67.6,100,49.1,101.9z M220.8,252.3c-39.8-5.9-51.7-36.4-48.7-68.2c1.7-17.7,8.1-35.8,17-50.3
			c18.9-30.9,45.6-54.3,78-70.2c0.2,0.4,0.4,0.7,0.6,1.1l0,0c0.7,1.4,1.5,2.9,2.2,4.4C297.4,126.1,324,267.8,220.8,252.3z"/>
	</g>
</g>
</svg>
