<?xml version="1.0" encoding="utf-8"?>
<!-- Generator: Adobe Illustrator 24.2.1, SVG Export Plug-In . SVG Version: 6.00 Build 0)  -->
<svg version="1.1" id="Layer_1" xmlns="http://www.w3.org/2000/svg" xmlns:xlink="http://www.w3.org/1999/xlink" x="0px" y="0px"
	 viewBox="0 0 6002.2 2900.8" style="enable-background:new 0 0 6002.2 2900.8;" xml:space="preserve">
<style type="text/css">
	.st0{fill:#F7941D;}
	.st1{fill:#58595B;}
	.st2{fill:#00AEEF;}
	.st3{fill:#333333;}
</style>
<g>
	<g>
		<path class="st0" d="M2743.2-1380l-135.8,235.6h138.7v58.9h-238.5l135.8-235.6h-132.8v-58.9H2743.2z"/>
		<path class="st0" d="M2922.8-1085.5c-40.7,0-75.4-14.4-104.1-43.1c-28.8-28.8-43.1-63.5-43.1-104.1c0-40.6,14.4-75.3,43.1-104.1
			c28.8-28.8,63.5-43.1,104.1-43.1c40.6,0,75.3,14.4,104.1,43.1c28.8,28.8,43.2,63.5,43.2,104.1c0,40.6-14.4,75.3-43.2,104.1
			C2998.2-1099.9,2963.5-1085.5,2922.8-1085.5z M2922.8-1321.1c-24.4,0-45.2,8.6-62.4,25.9c-17.3,17.3-25.9,38.1-25.9,62.4
			c0,24.3,8.6,45.2,25.9,62.4c17.3,17.3,38.1,25.9,62.4,25.9c24.3,0,45.2-8.6,62.4-25.9c17.3-17.3,25.9-38.1,25.9-62.4
			c0-24.3-8.6-45.2-25.9-62.4C2968-1312.5,2947.2-1321.1,2922.8-1321.1z"/>
		<path class="st0" d="M3246.8-1085.5c-40.7,0-75.4-14.4-104.1-43.1c-28.8-28.8-43.1-63.5-43.1-104.1c0-40.6,14.4-75.3,43.1-104.1
			c28.8-28.8,63.5-43.1,104.1-43.1c40.6,0,75.3,14.4,104.1,43.1c28.8,28.8,43.2,63.5,43.2,104.1c0,40.6-14.4,75.3-43.2,104.1
			C3322.1-1099.9,3287.4-1085.5,3246.8-1085.5z M3246.8-1321.1c-24.4,0-45.2,8.6-62.4,25.9c-17.3,17.3-25.9,38.1-25.9,62.4
			c0,24.3,8.6,45.2,25.9,62.4c17.3,17.3,38.1,25.9,62.4,25.9c24.3,0,45.2-8.6,62.4-25.9c17.3-17.3,25.9-38.1,25.9-62.4
			c0-24.3-8.6-45.2-25.9-62.4C3291.9-1312.5,3271.1-1321.1,3246.8-1321.1z"/>
		<path class="st0" d="M3659.1-1232.8c0-24.3-8.6-45.2-25.9-62.4c-17.3-17.3-38.1-25.9-62.4-25.9c-24.4,0-45.2,8.6-62.4,25.9
			c-17.3,17.3-25.9,38.1-25.9,62.4v147.3h-58.9V-1380h58.9v29.2c25.3-19.4,54.8-29.2,88.4-29.2c40.6,0,75.3,14.4,104.1,43.1
			c28.8,28.8,43.2,63.5,43.2,104.1v147.3h-58.9V-1232.8z"/>
		<path class="st0" d="M3983-1114.7c-25.3,19.4-54.8,29.2-88.3,29.2c-40.7,0-75.4-14.4-104.1-43.1c-28.8-28.8-43.1-63.5-43.1-104.1
			c0-40.6,14.4-75.3,43.1-104.1c28.8-28.8,63.5-43.1,104.1-43.1c33.6,0,63,9.7,88.3,29.2v-29.2h58.9v294.5H3983V-1114.7z
			 M3894.7-1321.1c-24.4,0-45.2,8.6-62.4,25.9c-17.3,17.3-25.9,38.1-25.9,62.4c0,24.3,8.6,45.2,25.9,62.4
			c17.3,17.3,38.1,25.9,62.4,25.9c24.3,0,45.2-8.6,62.4-25.9c17.3-17.3,25.9-38.1,25.9-62.4c0-24.3-8.6-45.2-25.9-62.4
			C3939.9-1312.5,3919-1321.1,3894.7-1321.1z"/>
	</g>
	<g>
		<path class="st1" d="M1934.4-1275.2c18.1-13.9,39.1-20.8,63-20.8c29,0,53.7,10.3,74.3,30.8c20.5,20.5,30.8,45.3,30.8,74.3
			c0,29-10.3,53.8-30.8,74.3c-20.5,20.5-45.3,30.8-74.3,30.8c-24,0-45-6.9-63-20.8v104.8h-42V-1296h42V-1275.2z M1997.4-1128
			c17.4,0,32.2-6.2,44.5-18.5s18.5-27.2,18.5-44.5c0-17.4-6.2-32.2-18.5-44.5c-12.3-12.3-27.2-18.5-44.5-18.5
			c-17.4,0-32.2,6.2-44.5,18.5c-12.3,12.3-18.5,27.2-18.5,44.5c0,17.4,6.2,32.2,18.5,44.5C1965.2-1134.1,1980.1-1128,1997.4-1128z"
			/>
		<path class="st1" d="M2275.4-1149l37.4,21l-9.9,11.1c-20.6,20.6-45.4,30.9-74.4,30.9c-29,0-53.8-10.3-74.3-30.8
			c-20.5-20.5-30.8-45.3-30.8-74.3c0-29,10.3-53.7,30.8-74.3c20.5-20.5,45.3-30.8,74.3-30.8c29,0,53.7,10.3,74.3,30.8
			c20.5,20.5,30.8,45.3,30.8,74.3c0,7.3-0.6,14.3-1.9,21h-162.8c3.1,8.7,8.1,16.5,15.1,23.5c12.3,12.3,27.2,18.5,44.5,18.5
			c17.4,0,32.2-6.2,44.5-18.5C2273.9-1147.3,2274.7-1148.1,2275.4-1149z M2288.2-1212c-3.1-8.7-8.1-16.5-15.1-23.5
			c-12.3-12.3-27.2-18.5-44.5-18.5c-17.4,0-32.2,6.2-44.5,18.5c-7,7-12,14.8-15.1,23.5H2288.2z"/>
		<path class="st1" d="M2375.6-1296v-84h42v84h63v42h-63v63c0,17.4,6.2,32.2,18.5,44.5c12.3,12.3,27.2,18.5,44.5,18.5v42
			c-29,0-53.7-10.3-74.3-30.8c-20.5-20.5-30.8-45.3-30.8-74.3v-63h-21v-42H2375.6z"/>
	</g>
</g>
<g>
	<path class="st2" d="M1969.9-2443.4c-29.3,24.1-40.5,52.3-33.9,75.8c11.1,39.1,62.7,81.2,124.4,84.9l0,0
		c11.7,1.6,22.7,1.8,33.6,0.5c60-6.1,113.5-41.7,159.3-105.9c-53.3-38.1-114.3-77-171.6-84.7
		C2040.1-2478.4,2004.4-2471.8,1969.9-2443.4z M2087.9-2384.8c-1.9,27.3-25.5,47.9-52.7,46c-27.3-1.9-47.9-25.5-46-52.7
		c1.9-27.3,25.5-47.9,52.7-46C2069.2-2435.7,2089.8-2412.1,2087.9-2384.8z"/>
	<path class="st3" d="M3194.5-2445.4c57.6,122.6,108.3,316.9,108,502.1c63.5-228.5,209.3-434,404.8-588.5
		C3514.8-2529.4,3342.8-2500.5,3194.5-2445.4z M3391.3-2384.8c-1.9,27.3-25.5,47.9-52.7,46s-47.9-25.5-46-52.7s25.5-47.9,52.7-46
		C3372.6-2435.7,3393.2-2412.1,3391.3-2384.8z"/>
	<path class="st0" d="M2759-2418.2L2759-2418.2c-99.6-13.4-180.7-72.5-221.9-158.6c-62.5,52.7-118.5,110-167.1,171.1
		c49.5,36.9,83.6,74.4,105.3,101.7c72.6,91.1,99.4,183,113.7,234.3c8.4,29.8,13.7,56.1,17.2,77c65.8-182.7,216.1-353.8,419.6-474.5
		c-6.8-11.5-13.7-22.8-20.8-33.9C2942-2437,2851.8-2405.7,2759-2418.2z M2587.2-2384.8c-1.9,27.3-25.5,47.9-52.7,46
		c-27.3-1.9-47.9-25.5-46-52.7c1.9-27.3,25.5-47.9,52.7-46C2568.4-2435.7,2589-2412.1,2587.2-2384.8z"/>
	<path class="st1" d="M4133.1-2630.3c-1.7-7.3-4.8-14.2-9.2-20.2c-4.3-5.8-10.2-10.7-16.2-13.8c-6-3.2-12.4-4.8-18.5-5.6
		c-6.1-0.7-12.1-0.7-17.9-0.2c-5.2,0.5-10.3,1.3-15.2,2.4c5.2-0.5,10.5-0.4,15.7,0.2c5.9,0.8,11.3,2.4,16,4.7
		c1.8,0.8,3.6,1.9,5.9,3.4c0.7,0.4,1.3,0.9,2,1.5l1.9,1.7c0.6,0.6,1.2,1.2,1.7,1.8c0.3,0.3,0.6,0.7,0.8,1c0.6,0.6,1.1,1.4,1.5,2.1
		c0.2,0.3,0.4,0.6,0.6,0.9c0.7,1.1,1.2,2.1,1.5,2.9l0.9,2.2c0.1,0.2,0.3,0.7,0.8,2.2l0,0.1l0.4,2.2c0.7,4.3,0.5,8.8-0.5,12.9
		c-0.9,4.1-2.5,8.1-4.6,11.7c-0.2,0.3-0.4,0.6-0.5,0.9c-0.3,0.5-0.6,1.1-1,1.6c-0.2,0.3-0.5,0.7-0.7,1l-0.6,0.8l0,0
		c-0.6,0.8-3.8,4.1-4,4.3c-2.3,2.1-4.9,4-8.2,5.8c-2.6,1.5-5.9,3-9.8,4.4l-0.9,0.3c-1.4,0.5-2.9,0.9-4.2,1.2l-0.8,0.2l-5.7,1
		c-1.1,0.2-2.4,0.4-3.8,0.6c-0.7,0.1-1.5,0.2-2.2,0.3c-0.8,0.1-1.6,0.1-2.4,0.2c-1.4,0.1-2.8,0.3-4.3,0.3c-4.4,0.3-8.9,0.4-13.5,0.2
		c-1.3-0.1-2.6-0.1-3.8-0.2c-3.9-0.3-7-0.6-9.9-1.1l-3.5-0.7c-0.6-0.1-1-0.2-1.4-0.3c-0.6-0.1-1.3-0.3-2-0.5
		c-2.2-0.6-4.7-1.3-7.1-2.1c-3.6-1.2-7.1-2.7-10.6-4.5l-0.6-0.3l0.1-1.1c0-0.3,0-0.7,0.1-1c0.1-1.1,0.2-2.2,0.3-3.3
		c0.1-0.6,0.1-1.2,0.2-1.7c0.1-1.2,0.3-2.3,0.5-3.3c0.1-0.6,0.2-1.1,0.3-1.7c0.7-3.5,1.6-6.9,2.7-10c1.1-3.3,2.4-6.5,4-9.6
		c1.6-3.1,3.5-6.2,5.6-9c0.7-1.1,1.6-2.1,2.4-3c0.3-0.4,0.6-0.7,0.9-1.1c0.8-1,1.6-1.8,2.5-2.7c0.4-0.4,0.8-0.8,1.2-1.2
		c0.9-0.9,1.8-1.7,2.8-2.4c0.2-0.2,0.4-0.3,0.6-0.5c-1.3,0.9-2.7,1.7-3.9,2.6c-2.9,2.1-5.7,4.3-8.4,6.7c-1.4,1.2-2.7,2.4-4,3.7
		c-1.3,1.3-2.6,2.5-3.8,3.9c-1.3,1.3-2.5,2.7-3.7,4.1c-1.2,1.4-2.5,2.8-3.6,4.3c-1.1,1.5-2.3,3-3.4,4.5c-1.1,1.5-2.3,3.1-3.3,4.7
		c-1,1.6-2.1,3.2-3,4.9c-1,1.7-2,3.3-2.9,5c-1.4,2.5-2.6,5.1-3.9,7.7l-72.1-5.6c-262.4-20.4-533.6,11.2-773.4,124.7
		c-39.9-70.5-87.8-135.1-137.2-199.1c-42.5,98.2-103.8,186.3-224.1,174.7c-121.2-11.7-167.9-108.7-186.9-214.1
		c-109.3,89.1-208.6,183.7-287.4,301.6c-62.2-53.5-139.3-116.8-224.2-122.9c-99.1-7.1-214.3,62.7-206.4,171.2
		c9.2,127.2,146.8,175.8,255.5,141.1c76.9-24.6,136-79.8,179.5-145.7c44.2,34.2,103.3,84.3,146.1,138.2
		c13.9,17.5,25.8,36.3,35.8,56.2c3.8,7.6,7.6,15.4,11.4,23.6c0.2,0.5,0.5,1.1,0.7,1.7c0-0.1-0.1-0.2-0.1-0.4
		c-14.6-88-114-187-176.5-243.7c66.8-89.3,145.5-167.7,233.4-236.2c55.6,208.1,335.3,251.8,454.6,74.7
		c24.4,35.1,46.8,71.5,67.5,108.8c-211.5,116.8-413.5,318.4-460.3,564.7c-2.4,12.7-3.9,25.1-4.9,37.4
		c-18.2,228.1,202,389.6,425.9,315.2c109.7-36.4,174.9-113.7,209-210.3c77.7-220.4-6.9-541.8-97.7-711.7
		c209.3-86.4,441.5-109.2,666.2-100.5c-309.4,200.8-539.6,547.3-535.2,920c0.1,5.8,0,11.7,0.2,17.5
		c28-441.7,327.9-765.9,702.1-968.4l0.2,0.3c3.7,5.2,8,10.2,12.8,14.9c2.4,2.3,4.9,4.6,7.6,6.7c1.2,1,2.9,2.2,4.2,3.1l0.9,0.6
		l0.4,0.3l0.2,0.2c0.4,0.2,0.2,0.1,0.3,0.1l0.1,0l0.1,0.1l2.3,1.4c6,3.6,12.3,6.5,18.9,8.8c6.6,2.2,13.4,3.7,20.4,4.5
		c3.5,0.3,7,0.6,10.5,0.6l5.3-0.2c1.7-0.1,3.8-0.3,5.7-0.5c0.9-0.1,2-0.2,2.8-0.3l2.1-0.3l2.1-0.3l0.5-0.1l1.3-0.2l1.6-0.3
		c4.1-1,7.7-2.2,11.3-3.7c7.2-2.9,13.9-7,20-12.2c6.1-5.2,11.4-11.7,15.3-18.9c1-1.9,2.1-4.2,3-6.2l0.3-0.8l0.2-0.5l0.3-1l0.6-2.1
		l0.1-0.5l0-0.1c-0.3,0.7,0.4-1,0.4-0.9l0-0.2l0.1-0.4l0.4-1.4c0.2-1,0.5-1.9,0.7-2.9c0.4-1.9,0.7-3.8,0.9-5.7
		C4135.3-2615.6,4134.9-2623.1,4133.1-2630.3z M2091.8-2256.4c-106.6,12.4-257.4-103.1-135.9-203c110.3-90.7,229.4-3.6,321.9,64.2
		C2236.2-2325.1,2176.1-2265,2091.8-2256.4z M2876.2-1569c-181.7-27.1-236.4-166.5-222.3-311.8c7.8-80.9,37-163.7,77.5-230
		c86.4-141.1,208.4-248.1,356.6-320.7c0.9,1.7,1.9,3.4,2.8,5.1l0,0c3.4,6.5,6.8,13.3,10.1,20.3
		C3226-2145.6,3347.9-1498.5,2876.2-1569z"/>
</g>
<g>
	<g>
		<path class="st2" d="M812,1127c-29.3,24.1-40.5,52.3-33.9,75.8c11.1,39.1,62.7,81.2,124.4,84.9l0,0c11.7,1.6,22.7,1.8,33.6,0.5
			c60-6.1,113.5-41.7,159.3-105.9c-53.3-38.1-114.3-77-171.6-84.7C882.2,1092.1,846.5,1098.7,812,1127z M929.9,1185.6
			c-1.9,27.3-25.5,47.9-52.7,46c-27.3-1.9-47.9-25.5-46-52.7s25.5-47.9,52.7-46S931.8,1158.4,929.9,1185.6z"/>
		<path class="st3" d="M2036.6,1125.1c57.6,122.6,108.3,316.9,108,502.1c63.5-228.5,209.3-434,404.8-588.5
			C2356.8,1041,2184.8,1070,2036.6,1125.1z M2233.3,1185.6c-1.9,27.3-25.5,47.9-52.7,46s-47.9-25.5-46-52.7s25.5-47.9,52.7-46
			S2235.2,1158.4,2233.3,1185.6z"/>
		<path class="st0" d="M1601,1152.2L1601,1152.2c-99.6-13.4-180.7-72.5-221.9-158.6c-62.5,52.7-118.5,110-167.1,171.1
			c49.5,36.9,83.6,74.4,105.3,101.7c72.6,91.1,99.4,183,113.7,234.3c8.4,29.8,13.7,56.1,17.2,77c65.8-182.7,216.1-353.8,419.6-474.5
			c-6.8-11.5-13.7-22.8-20.8-33.9C1784,1133.5,1693.8,1164.7,1601,1152.2z M1429.2,1185.6c-1.9,27.3-25.5,47.9-52.7,46
			s-47.9-25.5-46-52.7s25.5-47.9,52.7-46S1431,1158.4,1429.2,1185.6z"/>
		<path class="st1" d="M2975.1,940.1c-1.7-7.3-4.8-14.2-9.2-20.2c-4.3-5.8-10.2-10.7-16.2-13.8c-6-3.2-12.4-4.8-18.5-5.6
			c-6.1-0.7-12.1-0.7-17.9-0.2c-5.2,0.5-10.3,1.3-15.2,2.4c5.2-0.5,10.5-0.4,15.7,0.2c5.9,0.8,11.3,2.4,16,4.7
			c1.8,0.8,3.6,1.9,5.9,3.4c0.7,0.4,1.3,0.9,2,1.5l1.9,1.7c0.6,0.6,1.2,1.2,1.7,1.8c0.3,0.3,0.6,0.7,0.8,1c0.6,0.6,1.1,1.4,1.5,2.1
			c0.2,0.3,0.4,0.6,0.6,0.9c0.7,1.1,1.2,2.1,1.5,2.9l0.9,2.2c0.1,0.2,0.3,0.7,0.8,2.2l0,0.1l0.4,2.2c0.7,4.3,0.5,8.8-0.5,12.9
			c-0.9,4.1-2.5,8.1-4.6,11.7c-0.2,0.3-0.4,0.6-0.5,0.9c-0.3,0.5-0.6,1.1-1,1.6c-0.2,0.3-0.5,0.7-0.7,1l-0.6,0.8l0,0
			c-0.6,0.8-3.8,4.1-4,4.3c-2.3,2.1-4.9,4-8.2,5.8c-2.6,1.5-5.9,3-9.8,4.4l-0.9,0.3c-1.4,0.5-2.9,0.9-4.2,1.2l-0.8,0.2l-5.7,1
			c-1.1,0.2-2.4,0.4-3.8,0.6c-0.7,0.1-1.5,0.2-2.2,0.3c-0.8,0.1-1.6,0.1-2.4,0.2c-1.4,0.1-2.8,0.3-4.3,0.3
			c-4.4,0.3-8.9,0.4-13.5,0.2c-1.3-0.1-2.6-0.1-3.8-0.2c-3.9-0.3-7-0.6-9.9-1.1l-3.5-0.7c-0.6-0.1-1-0.2-1.4-0.3
			c-0.6-0.1-1.3-0.3-2-0.5c-2.2-0.6-4.7-1.3-7.1-2.1c-3.6-1.2-7.1-2.7-10.6-4.5l-0.6-0.3l0.1-1.1c0-0.3,0-0.7,0.1-1
			c0.1-1.1,0.2-2.2,0.3-3.3c0.1-0.6,0.1-1.2,0.2-1.7c0.1-1.2,0.3-2.3,0.5-3.3c0.1-0.6,0.2-1.1,0.3-1.7c0.7-3.5,1.6-6.9,2.7-10
			c1.1-3.3,2.4-6.5,4-9.6c1.6-3.1,3.5-6.2,5.6-9c0.7-1.1,1.6-2.1,2.4-3c0.3-0.4,0.6-0.7,0.9-1.1c0.8-1,1.6-1.8,2.5-2.7
			c0.4-0.4,0.8-0.8,1.2-1.2c0.9-0.9,1.8-1.7,2.8-2.4c0.2-0.2,0.4-0.3,0.6-0.5c-1.3,0.9-2.7,1.7-3.9,2.7c-2.9,2.1-5.7,4.3-8.4,6.7
			c-1.4,1.2-2.7,2.4-4,3.7c-1.3,1.3-2.6,2.5-3.8,3.9c-1.3,1.3-2.5,2.7-3.7,4.1c-1.2,1.4-2.5,2.8-3.6,4.3c-1.1,1.5-2.3,3-3.4,4.5
			c-1.1,1.5-2.3,3.1-3.3,4.7c-1,1.6-2.1,3.2-3,4.9c-1,1.7-2,3.3-2.9,5c-1.4,2.5-2.6,5.1-3.9,7.7l-72.1-5.6
			c-262.4-20.4-533.6,11.2-773.4,124.7c-39.9-70.5-87.8-135.1-137.2-199.1c-42.5,98.2-103.8,186.3-224.1,174.7
			c-121.2-11.7-167.9-108.7-186.9-214.1c-109.3,89.1-208.6,183.7-287.4,301.6c-62.2-53.5-139.3-116.8-224.2-122.9
			c-99.1-7.1-214.3,62.7-206.4,171.2c9.2,127.2,146.8,175.8,255.5,141.1c76.9-24.6,136-79.8,179.5-145.7
			c44.2,34.2,103.3,84.3,146.1,138.2c13.9,17.5,25.8,36.3,35.8,56.2c3.8,7.6,7.6,15.4,11.4,23.6c0.2,0.5,0.5,1.1,0.7,1.7
			c0-0.1-0.1-0.2-0.1-0.4c-14.6-88-114-187-176.5-243.7c66.8-89.3,145.5-167.7,233.4-236.2c55.6,208.1,335.3,251.8,454.6,74.7
			c24.4,35.1,46.8,71.5,67.5,108.8c-211.5,116.8-413.5,318.4-460.3,564.7c-2.4,12.7-3.9,25.1-4.9,37.4
			c-18.2,228.1,202,389.6,425.9,315.2c109.7-36.4,174.9-113.7,209-210.3c77.7-220.4-6.9-541.8-97.7-711.7
			c209.3-86.4,441.5-109.2,666.2-100.5c-309.4,200.8-539.6,547.3-535.2,920c0.1,5.8,0,11.7,0.2,17.5
			c28-441.7,327.9-765.9,702.1-968.4l0.2,0.3c3.7,5.2,8,10.2,12.8,14.9c2.4,2.3,4.9,4.6,7.6,6.7c1.2,1,2.9,2.2,4.2,3.1l0.9,0.6
			l0.4,0.3l0.2,0.2c0.4,0.2,0.2,0.1,0.3,0.1l0.1,0l0.1,0.1l2.3,1.4c6,3.6,12.3,6.5,18.9,8.8c6.6,2.2,13.4,3.7,20.4,4.5
			c3.5,0.3,7,0.6,10.5,0.6l5.3-0.2c1.7-0.1,3.8-0.3,5.7-0.5c0.9-0.1,2-0.2,2.8-0.3l2.1-0.3l2.1-0.3l0.5-0.1l1.3-0.2l1.6-0.3
			c4.1-1,7.7-2.2,11.3-3.7c7.2-2.9,13.9-7,20-12.2c6.1-5.2,11.4-11.7,15.3-18.9c1-1.9,2.1-4.2,3-6.2l0.3-0.8l0.2-0.5l0.3-1l0.6-2.1
			l0.1-0.5l0-0.1c-0.3,0.7,0.4-1,0.4-0.9l0-0.2l0.1-0.4l0.4-1.4c0.2-1,0.5-1.9,0.7-2.9c0.4-1.9,0.7-3.8,0.9-5.7
			C2977.4,954.9,2976.9,947.4,2975.1,940.1z M933.8,1314c-106.6,12.4-257.4-103.1-135.9-203c110.3-90.7,229.4-3.6,321.9,64.2
			C1078.2,1245.3,1018.1,1305.5,933.8,1314z M1718.2,2001.5c-181.7-27.1-236.4-166.5-222.3-311.8c7.8-80.9,37-163.7,77.5-230
			c86.4-141.1,208.4-248.1,356.6-320.7c0.9,1.7,1.9,3.4,2.8,5.1l0,0c3.4,6.5,6.8,13.3,10.1,20.3
			C2068,1424.8,2189.9,2071.9,1718.2,2001.5z"/>
	</g>
	<g>
		<g>
			<path class="st0" d="M3529,1430.6l-184.4,320h188.4v80h-324l184.4-320H3213v-80H3529z"/>
			<path class="st0" d="M3772.9,1830.6c-55.2,0-102.3-19.5-141.4-58.6c-39.1-39.1-58.6-86.2-58.6-141.4
				c0-55.2,19.5-102.3,58.6-141.4c39.1-39.1,86.2-58.6,141.4-58.6c55.2,0,102.3,19.5,141.4,58.6c39.1,39.1,58.6,86.2,58.6,141.4
				c0,55.2-19.6,102.3-58.6,141.4C3875.3,1811,3828.1,1830.6,3772.9,1830.6z M3772.9,1510.6c-33.1,0-61.4,11.7-84.8,35.2
				c-23.5,23.5-35.2,51.7-35.2,84.8c0,33.1,11.7,61.3,35.2,84.8c23.5,23.5,51.7,35.2,84.8,35.2c33.1,0,61.3-11.7,84.8-35.2
				c23.5-23.5,35.2-51.7,35.2-84.8c0-33.1-11.7-61.3-35.2-84.8C3834.3,1522.3,3806,1510.6,3772.9,1510.6z"/>
			<path class="st0" d="M4212.9,1830.6c-55.2,0-102.3-19.5-141.4-58.6c-39.1-39.1-58.6-86.2-58.6-141.4
				c0-55.2,19.5-102.3,58.6-141.4c39.1-39.1,86.2-58.6,141.4-58.6c55.2,0,102.3,19.5,141.4,58.6c39.1,39.1,58.6,86.2,58.6,141.4
				c0,55.2-19.6,102.3-58.6,141.4C4315.3,1811,4268.1,1830.6,4212.9,1830.6z M4212.9,1510.6c-33.1,0-61.4,11.7-84.8,35.2
				c-23.5,23.5-35.2,51.7-35.2,84.8c0,33.1,11.7,61.3,35.2,84.8c23.5,23.5,51.7,35.2,84.8,35.2c33.1,0,61.3-11.7,84.8-35.2
				c23.5-23.5,35.2-51.7,35.2-84.8c0-33.1-11.7-61.3-35.2-84.8C4274.3,1522.3,4246,1510.6,4212.9,1510.6z"/>
			<path class="st0" d="M4772.9,1630.6c0-33.1-11.7-61.3-35.2-84.8c-23.5-23.5-51.7-35.2-84.8-35.2c-33.1,0-61.4,11.7-84.8,35.2
				c-23.5,23.5-35.2,51.7-35.2,84.8v200h-80v-400h80v39.6c34.4-26.4,74.4-39.6,120-39.6c55.2,0,102.3,19.5,141.4,58.6
				c39.1,39.1,58.6,86.2,58.6,141.4v200h-80V1630.6z"/>
			<path class="st0" d="M5212.9,1791c-34.4,26.4-74.4,39.6-120,39.6c-55.2,0-102.3-19.5-141.4-58.6c-39.1-39.1-58.6-86.2-58.6-141.4
				c0-55.2,19.5-102.3,58.6-141.4c39.1-39.1,86.2-58.6,141.4-58.6c45.6,0,85.6,13.2,120,39.6v-39.6h80v400h-80V1791z M5092.9,1510.6
				c-33.1,0-61.4,11.7-84.8,35.2c-23.5,23.5-35.2,51.7-35.2,84.8c0,33.1,11.7,61.3,35.2,84.8c23.5,23.5,51.7,35.2,84.8,35.2
				c33.1,0,61.3-11.7,84.8-35.2c23.5-23.5,35.2-51.7,35.2-84.8c0-33.1-11.7-61.3-35.2-84.8C5154.3,1522.3,5126,1510.6,5092.9,1510.6
				z"/>
		</g>
		<g>
			<path class="st1" d="M2430.5,1572.9c24.5-18.8,53.1-28.2,85.6-28.2c39.4,0,73,13.9,100.9,41.8c27.9,27.9,41.8,61.5,41.8,100.9
				c0,39.4-13.9,73-41.8,100.9c-27.9,27.9-61.5,41.8-100.9,41.8c-32.5,0-61.1-9.4-85.6-28.2v142.4h-57.1v-399.5h57.1V1572.9z
				 M2516.1,1772.9c23.6,0,43.7-8.4,60.5-25.1c16.7-16.7,25.1-36.9,25.1-60.5c0-23.6-8.4-43.7-25.1-60.5
				c-16.7-16.7-36.9-25.1-60.5-25.1c-23.6,0-43.8,8.4-60.5,25.1s-25.1,36.9-25.1,60.5c0,23.6,8.4,43.8,25.1,60.5
				S2492.5,1772.9,2516.1,1772.9z"/>
			<path class="st1" d="M2893.6,1744.4l50.8,28.5L2931,1788c-28,28-61.6,41.9-101,41.9c-39.4,0-73-13.9-100.9-41.8
				c-27.9-27.9-41.8-61.5-41.8-100.9c0-39.4,13.9-73,41.8-100.9c27.9-27.9,61.5-41.8,100.9-41.8c39.4,0,73,13.9,100.9,41.8
				c27.9,27.9,41.8,61.5,41.8,100.9c0,9.9-0.9,19.4-2.6,28.5h-221.1c4.2,11.8,11,22.4,20.5,32c16.7,16.7,36.9,25.1,60.5,25.1
				c23.6,0,43.7-8.4,60.5-25.1C2891.6,1746.7,2892.6,1745.5,2893.6,1744.4z M2911,1658.8c-4.2-11.8-11-22.4-20.6-32
				c-16.7-16.7-36.9-25.1-60.5-25.1c-23.6,0-43.8,8.4-60.5,25.1c-9.5,9.5-16.4,20.2-20.5,32H2911z"/>
			<path class="st1" d="M3029.7,1544.6v-114.1h57.1v114.1h85.6v57.1h-85.6v85.6c0,23.6,8.4,43.8,25.1,60.5
				c16.7,16.7,36.9,25.1,60.5,25.1v57.1c-39.4,0-73-13.9-100.9-41.8c-27.9-27.9-41.8-61.5-41.8-100.9v-85.6h-28.5v-57.1H3029.7z"/>
		</g>
	</g>
</g>
</svg>
